<svg xmlns="http://www.w3.org/2000/svg" height="226.773" width="207.88"><path d="M103.898 226.773a16.92 16.92 0 01-6.997-1.502C23.53 192.446-12.891 114.28 4.138 26.142a16.925 16.925 0 0111.694-12.977C44.23 4.441 73.872.015 103.92.007c30.087.008 59.73 4.434 88.146 13.16a16.908 16.908 0 0111.674 12.967c17.015 88.048-19.434 166.214-92.857 199.144a16.956 16.956 0 01-6.984 1.495" fill="#fff"/><path d="M188.53 62.168a.929.929 0 01-.5.85.942.942 0 01-.985-.06c-5.775-4.04-12.535-7.68-21.681-8.997a2.541 2.541 0 01-1.793-1.169c-3.38-5.432-11.687-14.794-20.408-20.338a.998.998 0 01.288-1.812c19.254-5.093 30.907-2.192 39.026.265a4.666 4.666 0 013.253 3.68c1.613 9.423 2.527 18.628 2.8 27.58zm-7.355 55.407a1.418 1.418 0 01-1.032.966 1.455 1.455 0 01-1.36-.396c-5.693-5.843-13.8-9.581-20.62-11.841a1.612 1.612 0 01-.946-.812c-.193-.39-.253-.841-.086-1.243 5.573-13.275 10.906-27.915 10-38.824-.067-.773.12-1.54.713-2.041A2.177 2.177 0 01169.99 63c2.42.878 4.747 2.094 6.86 3.444 6.547 4.166 10.713 9.598 10.8 19.786-1.153 10.955-3.339 21.429-6.475 31.345zm-8.478 21.117a140.881 140.881 0 01-13.478 21.984 1.202 1.202 0 01-1.096.476 1.189 1.189 0 01-.966-.7c-2.353-5.267-6.713-11.933-12.906-16.533a1.59 1.59 0 01-.367-2.193c1.867-2.73 4.507-6.779 7.047-11.682a22.481 22.481 0 002.5-8.821c.153-2.075.286-3.786.393-5.213a2.116 2.116 0 011.025-1.639 2.137 2.137 0 011.948-.119c13.573 5.92 20.473 13.42 15.9 24.44zm-51.507 56.871a1.668 1.668 0 01-1.712.007 1.676 1.676 0 01-.833-1.54c.386-6.45-2.121-13.454-8.294-18.889a1.037 1.037 0 01-.307-1.06 1.033 1.033 0 01.834-.726c4.066-.64 8.434-1.89 11.76-3.212a14.643 14.643 0 007.62-6.66l.46-.844.047.025c2.446-4.484 4.666-8.72 7.1-12.184a1.58 1.58 0 011.166-.672c.467-.05.94.112 1.273.441 5.248 5.076 8.175 13.503 6.236 21.22a1.947 1.947 0 00-.038-.073 18.735 18.735 0 01-4.458 8.262 141.196 141.196 0 01-20.807 15.882c-.013.007-.032.023-.047.023zm-16.592 7.235a3.343 3.343 0 01-3.773.607c-11.327-5.475-21.654-12.162-31.04-20.184v-.015c-3.14-2.697-9.026-7.02-9.026-16.663 0-6.158 2.674-12.261 6.84-16.294a1.58 1.58 0 011.273-.44 1.585 1.585 0 011.167.671c2.431 3.46 4.651 7.695 7.095 12.175l-.016.01c.147.27.294.548.447.819a14.702 14.702 0 007.626 6.659c4.7 1.791 5.207 1.542 7.895 2.843 12.239 6.017 23.799 17.877 11.512 29.812zm-53.851-42.346a1.193 1.193 0 01-.968.7 1.197 1.197 0 01-1.093-.476 140.674 140.674 0 01-13.48-21.984c-4.572-11.02 2.327-18.52 15.9-24.44a2.136 2.136 0 011.947.12c.586.35.973.964 1.026 1.638.107 1.427.24 3.138.394 5.213a22.495 22.495 0 002.5 8.82c2.539 4.904 5.179 8.954 7.046 11.683a1.591 1.591 0 01-.366 2.193c-6.195 4.6-10.554 11.266-12.906 16.533zm-22.987-41.91a1.425 1.425 0 01-1.034-.967c-3.133-9.916-5.32-20.39-6.473-31.345.087-10.188 4.253-15.62 10.8-19.786 2.113-1.35 4.44-2.566 6.86-3.444a2.175 2.175 0 012.146.384c.594.501.78 1.268.713 2.041-.905 10.91 4.427 25.549 10 38.824.167.402.107.853-.085 1.243-.194.383-.534.68-.948.812-6.82 2.26-14.926 5.998-20.62 11.84a1.452 1.452 0 01-1.36.397zm-8.386-56.374c.273-8.953 1.185-18.158 2.799-27.58a4.666 4.666 0 013.253-3.68c4.612-1.395 17.187-6.042 39.025-.266.388.101.682.424.742.815a.996.996 0 01-.454.997c-8.72 5.544-17.027 14.906-20.407 20.338a2.538 2.538 0 01-1.792 1.17c-9.148 1.315-15.906 4.955-21.68 8.996a.943.943 0 01-.986.06.927.927 0 01-.5-.85zm132.55-10.68c.427.616.487 1.408.174 2.081a2.137 2.137 0 01-1.72 1.215c-13.813 1.396-29.267 4.897-41.686 5.136a1.85 1.85 0 01-1.32-.523 1.792 1.792 0 01-.56-1.301c-.015-3.192-.04-8.457-.04-12.017 0-1.74.919-3.35 2.412-4.248 4.613-2.777 12.742-5.367 18.42-6.708a8.88 8.88 0 016.673 1.076c6.42 3.952 13.707 9.548 17.647 15.289zm-14.64 32.358a4.143 4.143 0 011.38-5.544c4.96-3.185 10.827-6.872 14.059-15.528a2.005 2.005 0 011.781-1.294c1.073-.06 2.14.568 2.413 1.598 2.235 8.518-1.1 20.41-8.746 37.709-.133.304-.4.528-.733.541a.813.813 0 01-.767-.495c-1.96-4.856-6.46-11.867-9.386-16.987zm-5.067 59.115c-1.358 1.645-3.6 2.298-5.646 1.658-5.167-1.625-12.28-3.705-16.287-4.784a3.577 3.577 0 01-2.654-3.23 32.489 32.489 0 01-.013-3.932 8.37 8.37 0 012.935-5.848c7.279-6.177 14.653-13.38 18.42-17.653a3.781 3.781 0 013.545-1.209c2.374.455 5.714 1.295 7.867 1.83a3.076 3.076 0 012.22 2.1c.687 2.279 1.392 5.161 1.806 7.943a7.578 7.578 0 01-.532 4.062c-2.194 5.088-5.593 11.781-11.66 19.063zm-7.374 6.807a.162.162 0 00-.029.009c.059.015.125.031.183.048.568.16 1.034.55 1.281 1.071a1.954 1.954 0 010 1.658c-1.528 3.266-3.667 6.654-4.113 7.315-.395.662-.921 1.551-2.194 2.067-5.114 2.022-10.421 2.439-16.06 2.439-5.48 0-10.94-.41-16.053-2.439a3.906 3.906 0 01-1.86-1.532c-.247-.388-.69-1.067-1.242-1.968l.015-.007c-.92-1.486-2.126-3.568-3.207-5.875a1.95 1.95 0 010-1.658c.247-.521.714-.91 1.28-1.07 5.204-1.41 14.14-3.742 19.951-4.558a8.29 8.29 0 012.299 0c5.753.804 14.549 3.097 19.749 4.5zm-61.35-29.932c.412-2.782 1.119-5.664 1.807-7.943a3.069 3.069 0 012.22-2.1c2.152-.535 5.491-1.375 7.866-1.83a3.783 3.783 0 013.546 1.209c3.767 4.273 11.14 11.476 18.42 17.653a8.361 8.361 0 012.933 5.848 31.848 31.848 0 01-.012 3.931 3.578 3.578 0 01-2.655 3.231c-4.006 1.079-11.12 3.159-16.287 4.784a5.283 5.283 0 01-5.645-1.658c-6.068-7.282-9.468-13.975-11.66-19.063a7.581 7.581 0 01-.533-4.062zm5.745-41.534a4.142 4.142 0 011.38 5.544c-2.925 5.12-7.425 12.13-9.387 16.987a.81.81 0 01-.765.495c-.333-.013-.6-.237-.735-.541-7.644-17.298-10.98-29.191-8.745-37.709.273-1.03 1.333-1.658 2.406-1.598a2.01 2.01 0 011.786 1.294c3.235 8.656 9.1 12.343 14.06 15.528zm31.854-20.206c0 .488-.2.96-.559 1.301a1.855 1.855 0 01-1.321.523c-12.42-.239-27.874-3.74-41.686-5.136a2.135 2.135 0 01-1.72-1.215 2.094 2.094 0 01.173-2.081c3.94-5.741 11.227-11.337 17.646-15.289a8.885 8.885 0 016.675-1.076c5.679 1.341 13.805 3.93 18.418 6.708a4.963 4.963 0 012.414 4.248c0 3.56-.027 8.825-.04 12.017zM74.186 74.067c-4.166-2.054-10.68-5.253-13.367-12.145a.56.56 0 01.079-.529.577.577 0 01.494-.205c3.153.377 8.346 1.357 12.307 2.13a4.42 4.42 0 012.82 1.868c.646.971.88 2.16.639 3.304-.373 1.744-.959 3.535-1.572 5.047-.107.258-.314.47-.58.57a1.047 1.047 0 01-.82-.04zm9.578-7.255a1.53 1.53 0 01.566-1.09 1.56 1.56 0 011.186-.338c3.362.457 9.488 1.144 13.736 1.396.98.058 1.74.857 1.74 1.83l-.073 28.807a1.841 1.841 0 01-1.787 1.823c-11.426.384-21.093 1.302-28.454 2.538a1.499 1.499 0 01-1.406-.528 1.493 1.493 0 01-.227-1.474c3.098-7.685 14.049-21.96 14.719-32.964zm21.825 53.393a5.13 5.13 0 01-3.282 0c-6.71-2.265-13.74-8.735-16.79-12.679a.899.899 0 01-.126-.893.91.91 0 01.699-.568c7.082-1.242 13.822-.792 17.841-.792h.04c4.02 0 10.76-.45 17.841.792.32.054.586.27.699.568a.898.898 0 01-.126.893c-3.052 3.945-10.084 10.42-16.796 12.68zm25.795-55.019a4.422 4.422 0 012.82-1.869c3.96-.772 9.154-1.752 12.307-2.13a.574.574 0 01.493.206.56.56 0 01.08.53c-2.688 6.891-9.2 10.09-13.366 12.144a1.051 1.051 0 01-.82.04 1.02 1.02 0 01-.58-.57c-.613-1.512-1.2-3.303-1.574-5.047a4.35 4.35 0 01.64-3.304zm7.474 34.59a1.492 1.492 0 01-.227 1.474c-.34.416-.873.615-1.406.528-7.36-1.236-17.027-2.154-28.454-2.538a1.84 1.84 0 01-1.786-1.823 129399.776 129399.776 0 00-.074-28.807c0-.973.76-1.772 1.74-1.83 4.247-.252 10.375-.939 13.736-1.396a1.559 1.559 0 011.753 1.428c.671 11.022 11.61 25.255 14.718 32.964zM63.36 22.233c13.465-1.876 26.805-2.901 40.572-2.895h.04c13.765-.006 27.105 1.019 40.572 2.895.274.038.48.27.487.54a.568.568 0 01-.468.564c-9.685 1.67-25.106 5.529-36.798 10.253-1.233.502-2.535.813-3.814.838-1.279-.025-2.579-.336-3.812-.838-11.694-4.724-27.114-8.583-36.8-10.253a.566.566 0 01-.466-.564.565.565 0 01.487-.54zm131.078 5.7a7.504 7.504 0 00-5.173-5.734c-27.674-8.502-56.5-12.738-85.293-12.745h-.04c-28.793.007-57.62 4.243-85.292 12.745a7.5 7.5 0 00-5.174 5.734c-16.493 85.396 19.355 158.3 87.331 188.727a7.609 7.609 0 006.227 0c65.949-29.598 104.405-100.744 87.414-188.727" fill="#db1c30"/></svg>