<?xml version="1.0" encoding="UTF-8"?> <svg xmlns="http://www.w3.org/2000/svg" id="Layer_2" data-name="Layer 2" viewBox="0 0 2687 633.86"><defs><style> .cls-1 { fill: none; stroke: #fff; stroke-miterlimit: 10; stroke-width: 14px; } .cls-2 { fill: #fff; stroke-width: 0px; } </style></defs><g id="Layer_1-2" data-name="Layer 1"><g><g><path class="cls-2" d="M326.47,221.81c-19.22,8.11-28.67,25.15-37.49,42.58-.33.64-.22,1.53-.22,2.3-.03,19.75-.02,39.51-.02,60.53,14.97-1.59,25.65-8.08,35.14-17.11,5.98-5.69,10.52-12.44,14.66-19.44,7.8-13.21,11.3-27.79,13.07-42.89.61-5.16-.78-10.1-2.11-14.88-2.86-10.23-13.09-15.28-23.03-11.09Z"></path><path class="cls-2" d="M519.77,116.2c-.88,26.37-1.74,52.75-4.6,78.91-4.21,38.5-13.23,76.35-25.73,113.19-1.92,5.66-4.96,10.18-10.18,13.62-14.91,9.84-29.49,20.19-45.62,28.03-11.05,5.37-15.62,4.11-22.25-6.19-6.4-9.93-9.56-21.21-12.1-32.57-1.77-7.92-2.69-16.01-3.07-24.22-1.92-41.17-1.49-82.38-2.69-123.56-.15-5.28.67-10.21,5.33-13.43,8.93-6.19,17.97-12.22,27.01-18.25,1.3-.86,2.88-1.04,4.62-.33,2.46,3.78,1.23,8.16,1.26,12.29.26,36.96.12,73.93.68,110.88.2,12.75,1.14,25.68,6.3,37.66,1.71,3.98,2.32,9.73,8.44,9.77,6.59.05,9.47-4.96,11.26-10.19,2-5.84,3.32-11.94,4.64-18,4.81-21.96,10.41-43.8,12.99-66.16,3.43-29.72,4.53-59.64,4.96-89.56.04-3.11-.11-6.24.09-9.34.51-8.15,3.22-14.9,10.87-19.3.03-.02.06-.03.08-.05-52.11-44.35-119.64-71.13-193.43-71.13C133.71,18.29,0,151.99,0,316.93c0,78.89,30.61,150.63,80.57,204.01,13.62-8.36,27.17-16.8,40.59-25.12,3.74,2.74.3,7.15,3.82,9.99,12.67-8.52,25.57-17.04,38.29-25.82,4.4-3.04,6.41-7.9,6.62-13.1.35-8.94.53-17.9.17-26.83-.26-6.51-4.16-8.77-10.38-6.51-2.51.91-4.78,2.54-7.12,3.91-15.07,8.83-30.08,17.75-45.21,26.46-4.01,2.31-8.2,4.61-12.61,5.82-6.9,1.92-12.31-1.77-13.76-8.85-.62-3.01-.57-6.19-.58-9.29-.04-28.41.28-56.81-.16-85.21-.2-12.97,4.61-21.99,15.64-28.96,31.19-19.69,62-39.97,92.97-60.01,1.63-1.05,3.26-2.19,5.05-2.9,7.37-2.93,12.45-.33,13.2,7.63.76,8.1.38,16.32.45,24.49.05,6.22,0,12.44,0,19.31-9.63,6.32-18.36,12.05-27.07,17.77-2.51-3.59-.6-7.42-2.33-10.64-3.46-.59-5.64,1.93-8.14,3.53-13.09,8.36-26.04,16.94-39.22,25.15-5.4,3.36-8.65,7.51-8.67,14.07-.02,7.38-.77,14.78-.34,22.12.21,3.58.26,8,5.04,10.57,4.48.82,8.3-2.19,12.14-4.54,12.91-7.91,25.63-16.14,38.51-24.1,5.27-3.26,10.53-6.73,16.22-9.1,8.16-3.39,13.78-.09,15.51,8.47.53,2.64.36,5.42.37,8.14.02,21.4.08,42.81,0,64.21-.09,22.22-8.66,39.53-28.25,51.38-24.2,14.64-48.03,29.87-71.99,44.9,51.53,42.29,117.46,67.68,189.32,67.68,164.94,0,298.64-133.71,298.64-298.64,0-77.28-29.35-147.7-77.52-200.73ZM390.46,254.28c-2.39,24.39-11.73,45.56-27.38,64.19-17.96,21.37-40.13,33.77-68.78,32.44-1.16-.05-2.34.04-3.5.16-.31.04-.57.44-1.6,1.3v81.54c-18.27,11.76-36.39,23.41-54.54,35.09-2.86-4.3-1.83-7.87-1.84-11.23-.07-66.19.07-132.36-.24-198.55-.04-7.47,2.16-11.99,8.26-16.3,13.95-9.84,27.24-20.61,40.86-30.93,1.75-1.33,3.15-3.66,6.07-2.84,2.26,3.85-.24,8.42,2.06,13.1,5.45-7.38,10.78-14.41,16.39-21.2,6.82-8.27,14.94-14.93,24.2-19.73,20.61-10.69,39.66-6.82,50.85,15.37,9.13,18.11,11.15,37.47,9.18,57.58Z"></path></g><line class="cls-1" x1="826.98" x2="826.98" y2="633.86"></line><g><path class="cls-2" d="M1499.79,301.1v91.15c0,13.95-8.01,22.72-20.64,22.72-10.84,0-18.19-6.32-20.27-16.78-12.25,12.54-33.56,20.27-55.9,20.27-38.74,0-63.53-22.34-63.53-57.59s27.62-56.27,70.51-56.27c16.4,0,34.59,2.45,49.96,6.98v-7.64c0-24.79-13.95-39.12-39.12-39.12-17.16,0-28.94,5.94-40.53,19.89-5.28,6.32-10.18,8.77-16.78,8.77-11.12,0-18.85-7.73-18.85-18.47,0-6.6,3.11-12.25,9.05-18.47,16.02-17.44,39.5-26.86,67.4-26.86,48.17,0,78.52,29.31,78.52,71.64M1410.06,383.86c20.27,0,36.67-6.32,49.96-18.85v-20.93c-16.02-4.9-31.77-7.73-46.09-7.73-23,0-35.25,8.39-35.25,23.75s11.22,23.75,31.39,23.75"></path><path class="cls-2" d="M1712.44,307.7v85.21c0,13.29-7.73,22.06-19.89,22.06s-20.27-8.39-20.27-22.06v-79.93c0-30.73-14.99-47.51-43.64-47.51s-46.47,19.23-46.47,48.92v78.52c0,13.29-8.01,22.06-19.89,22.06-12.54,0-20.27-8.39-20.27-22.06v-137.62c0-13.57,7.73-21.96,20.27-21.96,10.84,0,18.47,7.35,19.61,19.23,11.5-13.95,31.77-23,56.56-23,44.02,0,73.99,28.94,73.99,78.24"></path><path class="cls-2" d="M1924.72,307.7v85.21c0,13.29-7.64,22.06-19.89,22.06s-20.27-8.39-20.27-22.06v-79.93c0-30.73-14.99-47.51-43.64-47.51s-46.47,19.23-46.47,48.92v78.52c0,13.29-8.01,22.06-19.89,22.06-12.54,0-20.27-8.39-20.27-22.06v-137.62c0-13.57,7.73-21.96,20.27-21.96,10.84,0,18.47,7.35,19.51,19.23,11.5-13.95,31.77-23,56.56-23,44.02,0,73.99,28.94,73.99,78.24"></path><path class="cls-2" d="M2116.44,301.1v91.15c0,13.95-8.01,22.72-20.64,22.72-10.84,0-18.19-6.32-20.27-16.78-12.25,12.54-33.56,20.27-55.9,20.27-38.74,0-63.53-22.34-63.53-57.59s27.62-56.27,70.51-56.27c16.4,0,34.59,2.45,49.96,6.98v-7.64c0-24.79-13.95-39.12-39.12-39.12-17.16,0-28.94,5.94-40.53,19.89-5.28,6.32-10.09,8.77-16.78,8.77-11.22,0-18.85-7.73-18.85-18.47,0-6.6,3.11-12.25,9.05-18.47,16.02-17.44,39.5-26.86,67.4-26.86,48.17,0,78.61,29.31,78.61,71.64M2026.71,383.86c20.27,0,36.67-6.32,49.96-18.85v-20.93c-16.02-4.9-31.77-7.73-46.09-7.73-23.09,0-35.25,8.39-35.25,23.75s11.22,23.75,31.39,23.75"></path><path class="cls-2" d="M2335.03,188.93v204.26c0,13.29-7.64,21.68-19.89,21.68s-19.23-8.01-19.51-20.55c-12.54,14.7-34.22,24.13-59.01,24.13-51.65,0-88.32-39.12-88.32-94.26s37.33-94.26,89.08-94.26c22.72,0,44.3,8.77,57.59,22.72v-63.72c-.09-13.57,7.64-21.96,19.79-21.96s20.27,8.39,20.27,21.96M2297.05,324.1c0-34.59-22.34-58.63-54.48-58.63s-54.86,23.38-54.86,58.63,21.96,58.35,54.86,58.35,54.48-23.75,54.48-58.35"></path><path class="cls-2" d="M1320.42,237.48c-6.32-8.67-18.38-10.56-26.96-4.24l-48.26,34.97c-5.94,4.34-9.8,12.16-7.82,21.68l12.54,64.85-48.26-35.63c-3.39-2.45-7.45-3.68-11.41-3.68s-8.01,1.23-11.41,3.68l-48.26,35.63,12.54-64.85c1.98-9.52-1.89-17.34-7.82-21.68l-48.26-34.97c-8.67-6.32-20.74-4.34-26.96,4.24-6.22,8.67-4.34,20.74,4.24,26.96l39.12,28.28-23,100.01c-1.7,8.67.28,16.68,7.07,21.59,6.79,4.9,18.29,3.2,25.45-2.07l77.39-53.73h0l77.29,53.73c7.16,5.28,18.66,6.98,25.45,2.07,6.79-4.9,8.77-12.91,7.07-21.59l-23-100.01,39.12-28.28c8.58-6.22,10.56-18.38,4.24-26.96"></path><path class="cls-2" d="M2463.23,421.47c56.18,0,97.84-40.63,97.84-96.05s-41.66-96.43-97.84-96.43-97.84,40.91-97.84,96.43,41.29,96.05,97.84,96.05M2463.23,384.8c-34.12,0-56.93-23.85-56.93-59.38s22.81-59.76,56.93-59.76,56.93,23.85,56.93,59.76-22.72,59.38-56.93,59.38"></path><path class="cls-2" d="M2631.57,166.97c-31.67,0-55.14,24.13-55.14,55.33s22.72,54.86,55.14,54.86,55.43-24.13,55.43-54.86-22.43-55.33-55.43-55.33M2631.57,264.81c-24.98,0-42.04-18.85-42.04-42.51s17.44-42.98,42.04-42.98,42.32,18.85,42.32,42.98-17.16,42.51-42.32,42.51M2655.99,212.59c0-9.99-7.82-17.34-18.66-17.34h-19.42c-3.77,0-6.5,2.55-6.5,6.22v41c0,3.86,2.55,6.5,6.22,6.5s6.13-2.55,6.13-6.5l.19-12.35,5,.19,11.41,15.55c1.51,2.17,3.49,3.2,5.75,3.2,3.77,0,6.5-2.55,6.5-6.22,0-1.7-.47-2.83-1.79-4.52l-6.98-8.77c7.35-2.26,12.16-8.58,12.16-16.87M2623.75,219.85v-13.01h12.54c4.71,0,7.35,2.26,7.35,6.5s-2.55,6.5-7.73,6.5h-12.16Z"></path></g></g></g></svg> 